<?xml version="1.0" encoding="utf-8"?>
<!-- Generator: Adobe Illustrator 16.0.0, SVG Export Plug-In . SVG Version: 6.00 Build 0)  -->
<!DOCTYPE svg PUBLIC "-//W3C//DTD SVG 1.1//EN" "http://www.w3.org/Graphics/SVG/1.1/DTD/svg11.dtd">
<svg version="1.1" id="Camada_1" xmlns="http://www.w3.org/2000/svg" xmlns:xlink="http://www.w3.org/1999/xlink" x="0px" y="0px"
	 width="500px" height="500px" viewBox="0 0 500 500" enable-background="new 0 0 500 500" xml:space="preserve">
<g>
	<g>
		<g>
			<path fill="none" stroke="#3B5998" stroke-width="12.7894" stroke-linecap="round" stroke-linejoin="round" d="M485.367,479.522
				c-0.222-0.187-4.126,5.255-4.292,5.115c-0.036-0.03,4.505-41.342,3.452-42.225c-0.282-0.237-36.388,44.786-37.087,44.198
				c-1.505-1.262,38.714-84.464,38.544-84.606c-2.886-2.422-67.35,86.071-70.209,83.673c-2.687-2.255,73.836-115.248,68.668-119.584
				c-0.54-0.453-94.851,124.491-100.49,119.76c-2.284-1.917,105.877-154.383,101.32-158.207L353.964,484.133
				c0,0,138.858-190.87,132.279-196.39c0,0-159.392,201.009-164.834,196.442c-10.063-8.444,171.802-226.204,163.609-233.078
				c-7.232-6.068-192.829,239.597-197.651,235.551c-2.907-2.439,202.41-269.24,197.147-273.656c0,0-217.173,280.005-227.606,271.25
				c-10.356-8.689,239.193-298.147,227.157-308.247C472.823,166.571,225.6,484.032,225.6,484.032s267.039-337.583,258.226-344.979
				c-15.884-13.328-281.937,352.482-290.053,345.672l289.939-382.494c0,0-309.039,393.942-321.667,383.347
				c-9-7.551,328.337-419.957,324.028-423.573C466.61,45.674,132.705,483.134,132.705,483.134
				c-15.2-12.755,358.279-453.991,352.62-458.739c0,0-371.687,472.63-386.297,460.37C85.489,473.403,477.627,28.263,461.954,15.111
				L67.037,485.756C48.231,469.977,430.674,18.039,428.721,16.4C417.475,6.964,51.966,497.372,36.222,484.162
				c-5.656-4.746,371.901-463.02,362.906-470.567C382.565-0.304,29.102,485.603,13.824,472.783
				C8.435,468.262,384.35,29.245,366.953,14.647C354.556,4.245,21.435,436.759,16.344,432.487L336.249,13.146
				C326.3,4.797,20.958,398.146,16.402,394.323C7.27,386.66,303.64,13.304,303.64,13.304C290.021,1.875,24.093,362.85,16.02,356.076
				C3.178,345.301,277.979,20.716,270.624,14.545C258.941,4.742,15.67,318.388,15.67,318.388
				c-6.011-5.044,229.378-298.97,223.255-304.106c-0.136-0.114-217.813,274.244-225.034,268.185
				c0,0,195.538-262.687,191.174-266.349c0,0-186.697,229.383-190.087,226.537c-2.829-2.373,160.738-229.042,160.738-229.042
				S22.42,209.346,15.999,203.957c0,0,129.065-183.534,124.657-187.233c-7.17-6.017-120.143,156.597-126.749,151.053
				c-1.357-1.139,96.828-152.454,96.828-152.454c-1.393-1.169-96.483,116.533-97.246,115.894
				C9.683,128.021,81.974,15.04,80.234,13.58c-2.34-1.964-62.323,80.362-65.321,77.847c-0.741-0.622,35.329-74.869,33.167-76.684
				c-1.01-0.847-32.415,38.631-32.415,38.631"/>
		</g>
	</g>
	<g>
		<rect x="15" y="90.926" fill="none" width="469.999" height="299.584"/>
		<path fill="#FFFFFF" d="M298.6,184.282c0.426,3.696,0.853,7.82,1.279,12.363c0.426,4.549,0.706,8.739,0.853,12.576
			c0.14,3.837-0.073,5.901-0.639,6.182c-0.287,0.286-2.558,0.499-6.821,0.64c-4.263,0.146-9.592,0.213-15.987,0.213
			c-6.395,0-13.575-0.066-21.529-0.213c-7.96-0.141-15.92-0.214-23.874-0.214c-1.139,21.036-1.279,45.763-0.426,74.179
			c0.853,28.424,1.845,60.397,2.984,95.921l-29.416,4.264l-13.216-174.363h-6.821c-1.139,0-2.132-0.14-2.984-0.426
			c-0.286,0-0.426-1.133-0.426-3.411c0-2.271,0.14-4.969,0.426-8.1l0.853-11.937h2.132c0.566,0,2.271-0.28,5.116-0.853
			c-0.853-12.79-0.5-24.866,1.066-36.237c1.559-11.364,4.616-21.455,9.166-30.269c4.543-8.806,10.725-15.84,18.545-21.103
			c7.813-5.255,17.692-8.166,29.629-8.739c9.659-0.279,18.258,1.426,25.792,5.116c7.527,3.696,13.995,8.246,19.397,13.642
			c5.396,5.402,9.872,11.018,13.429,16.84c3.55,5.828,6.461,10.73,8.739,14.708c0,0.286-1.066,1.705-3.197,4.263
			s-4.55,5.329-7.248,8.313c-2.704,2.984-6.468,7.034-11.297,12.149c-1.425-0.566-3.197-2.624-5.329-6.182
			c-2.132-3.55-4.623-7.247-7.46-11.084c-2.844-3.837-6.182-7.101-10.019-9.805c-3.837-2.698-8.173-3.624-13.002-2.771
			c-6.542,1.426-11.724,5.969-15.561,13.643c-3.837,7.673-6.754,18.331-8.739,31.973c7.673-0.853,15.347-1.771,23.021-2.771
			c7.674-0.992,14.495-1.846,20.463-2.558c5.968-0.706,12.79-1.346,20.463-1.919C297.96,178.6,298.173,180.592,298.6,184.282z"/>
	</g>
</g>
</svg>
