<?xml version="1.0" encoding="utf-8"?>
<!-- Generator: Adobe Illustrator 16.0.0, SVG Export Plug-In . SVG Version: 6.00 Build 0)  -->
<!DOCTYPE svg PUBLIC "-//W3C//DTD SVG 1.1//EN" "http://www.w3.org/Graphics/SVG/1.1/DTD/svg11.dtd">
<svg version="1.1" id="Camada_1" xmlns="http://www.w3.org/2000/svg" xmlns:xlink="http://www.w3.org/1999/xlink" x="0px" y="0px"
	 width="500px" height="500px" viewBox="0 0 500 500" enable-background="new 0 0 500 500" xml:space="preserve">
<g>
	<g>
		<g>
			<path fill="none" stroke="#CCCCCC" stroke-width="12.7894" stroke-linecap="round" stroke-linejoin="round" d="M485.365,479.523
				c-0.222-0.187-4.125,5.254-4.291,5.114c-0.036-0.03,4.505-41.342,3.452-42.225c-0.282-0.237-36.389,44.786-37.088,44.199
				c-1.505-1.263,38.714-84.465,38.545-84.607c-2.887-2.422-67.351,86.071-70.21,83.672c-2.687-2.254,73.836-115.247,68.668-119.583
				c-0.539-0.453-94.852,124.491-100.49,119.76c-2.284-1.917,105.877-154.383,101.32-158.206L353.964,484.134
				c0,0,138.856-190.87,132.277-196.391c0,0-159.392,201.009-164.834,196.442c-10.062-8.443,171.802-226.204,163.609-233.078
				c-7.232-6.068-192.829,239.597-197.65,235.551c-2.907-2.439,202.409-269.24,197.146-273.656c0,0-217.173,280.005-227.606,271.251
				c-10.355-8.689,239.194-298.148,227.158-308.248c-11.242-9.434-258.466,308.027-258.466,308.027s267.039-337.584,258.226-344.979
				c-15.883-13.328-281.937,352.482-290.053,345.672l289.939-382.494c0,0-309.039,393.943-321.667,383.348
				c-8.999-7.552,328.337-419.958,324.028-423.574c-19.463-16.331-353.368,421.129-353.368,421.129
				c-15.2-12.755,358.278-453.992,352.62-458.74c0,0-371.687,472.631-386.297,460.371C85.488,473.403,477.626,28.263,461.953,15.111
				L67.035,485.756C48.23,469.976,430.673,18.039,428.72,16.4C417.474,6.964,51.965,497.372,36.222,484.162
				c-5.657-4.747,371.9-463.021,362.905-470.567C382.563-0.304,29.102,485.602,13.823,472.782
				C8.435,468.261,384.35,29.245,366.952,14.647C354.555,4.244,21.434,436.759,16.343,432.487L336.248,13.146
				C326.299,4.797,20.957,398.146,16.401,394.323C7.269,386.66,303.64,13.303,303.64,13.303
				C290.02,1.875,24.092,362.85,16.02,356.076C3.178,345.301,277.978,20.716,270.623,14.545
				C258.94,4.741,15.669,318.387,15.669,318.387C9.658,313.343,245.047,19.418,238.925,14.28
				c-0.137-0.114-217.813,274.245-225.034,268.186c0,0,195.537-262.688,191.174-266.349c0,0-186.697,229.382-190.088,226.537
				c-2.828-2.373,160.739-229.042,160.739-229.042S22.42,209.345,15.998,203.956c0,0,129.065-183.533,124.656-187.232
				c-7.17-6.017-120.142,156.596-126.748,151.053c-1.357-1.14,96.828-152.454,96.828-152.454
				c-1.394-1.169-96.482,116.534-97.246,115.894C9.682,128.021,81.973,15.039,80.233,13.579
				c-2.341-1.963-62.323,80.363-65.321,77.847C14.17,90.804,50.24,16.558,48.078,14.743c-1.01-0.848-32.415,38.631-32.415,38.631"/>
		</g>
	</g>
	<g>
		<g>
			<path fill="#3B5998" d="M298.6,184.282c0.426,3.696,0.852,7.82,1.278,12.363c0.427,4.549,0.706,8.739,0.853,12.576
				c0.141,3.837-0.073,5.901-0.639,6.182c-0.287,0.286-2.559,0.499-6.822,0.64c-4.263,0.146-9.592,0.213-15.986,0.213
				s-13.575-0.066-21.529-0.213c-7.959-0.141-15.92-0.214-23.873-0.214c-1.139,21.036-1.279,45.763-0.426,74.179
				c0.852,28.424,1.845,60.397,2.984,95.921l-29.416,4.264l-13.217-174.363h-6.82c-1.139,0-2.132-0.14-2.984-0.426
				c-0.286,0-0.426-1.133-0.426-3.411c0-2.271,0.14-4.969,0.426-8.1l0.853-11.937h2.132c0.566,0,2.271-0.28,5.115-0.853
				c-0.852-12.79-0.499-24.866,1.066-36.237c1.559-11.364,4.616-21.455,9.166-30.269c4.543-8.806,10.725-15.84,18.545-21.103
				c7.813-5.255,17.691-8.166,29.629-8.739c9.658-0.279,18.258,1.426,25.791,5.116c7.527,3.696,13.996,8.246,19.397,13.642
				c5.396,5.402,9.872,11.018,13.429,16.84c3.551,5.828,6.462,10.73,8.74,14.708c0,0.286-1.066,1.705-3.197,4.263
				c-2.132,2.558-4.551,5.329-7.248,8.313c-2.704,2.984-6.468,7.034-11.297,12.149c-1.426-0.566-3.197-2.624-5.329-6.182
				c-2.132-3.55-4.623-7.247-7.46-11.084c-2.845-3.837-6.182-7.101-10.02-9.805c-3.836-2.698-8.173-3.624-13.002-2.771
				c-6.541,1.426-11.724,5.969-15.561,13.643c-3.837,7.673-6.754,18.331-8.739,31.973c7.673-0.853,15.347-1.771,23.021-2.771
				c7.674-0.992,14.495-1.846,20.463-2.558c5.969-0.706,12.79-1.346,20.463-1.919C297.959,178.6,298.173,180.592,298.6,184.282z"/>
		</g>
	</g>
</g>
</svg>
