<?xml version="1.0" encoding="utf-8"?>
<!-- Generator: Adobe Illustrator 16.0.0, SVG Export Plug-In . SVG Version: 6.00 Build 0)  -->
<!DOCTYPE svg PUBLIC "-//W3C//DTD SVG 1.1//EN" "http://www.w3.org/Graphics/SVG/1.1/DTD/svg11.dtd">
<svg version="1.1" id="Camada_1" xmlns="http://www.w3.org/2000/svg" xmlns:xlink="http://www.w3.org/1999/xlink" x="0px" y="0px"
	 width="500px" height="500px" viewBox="0 0 500 500" enable-background="new 0 0 500 500" xml:space="preserve">
<g>
	<g>
		<g>
			<path fill="none" stroke="#1C87BD" stroke-width="12.7894" stroke-linecap="round" stroke-linejoin="round" d="M486.514,478.155
				c-0.167-0.141-6.174,7.433-6.211,7.401c-1.295-1.087,5.138-43.923,5.138-43.923c-1.667-1.398-33.182,42.933-34.85,41.533
				c-2.209-1.854,35.113-76.742,33.184-78.361c-2.448-2.054-64.658,83.437-67.8,80.801c-1.846-1.549,71.25-115.858,67.469-119.03
				c0,0-96.776,117.641-97.913,116.688c-3.492-2.931,102.259-152.3,98.455-155.492c-6.41-5.379-129.372,161.435-132.944,158.438
				c0,0,139.504-192.106,133.125-197.46c-5.042-4.229-165.435,197.158-165.435,197.158S490.27,255.202,484.608,250.452
				c-0.473-0.396-188.85,242.476-197.424,235.281c-3.082-2.586,199.424-275.883,199.158-276.106
				c-9.583-8.041-225.001,282.531-232.085,276.587c-1.067-0.896,232.052-312.805,231.202-313.518
				c0,0-252.574,317.271-260.583,310.55c0,0,271.842-335.488,259.214-346.085c-2.781-2.333-290.574,346.293-290.574,346.293
				C180.763,472.752,485.142,97.7,485.142,97.7s-323.59,385.841-323.689,385.758L486.209,57.815
				c-19.066-15.998-354.958,431.906-359.333,428.235C110.668,472.45,487.145,26.304,483.717,23.427
				c-0.43-0.359-374.478,473.012-387.638,461.969C76.163,468.684,479.26,29.648,460.286,13.728
				C439.356-3.834,78.843,497.045,64.696,485.174c0,0,372.931-463.947,363.465-471.891C410.959-1.15,54.264,504.656,31.721,485.741
				C24.179,479.412,393.928,16.61,393.928,16.61C372.767-1.146,24.381,478.679,13.716,469.729
				C4.461,461.964,374.362,25.089,362.849,15.428C345.142,0.57,17.774,432.458,14.924,430.067c0,0,321.924-412.877,317.468-416.616
				c0,0-311.748,385.311-318.535,379.615C1.576,382.762,317.009,30.068,299.053,15.001c0,0-278.134,341.512-283.08,337.361
				L266.581,16.047c-5.293-4.442-244.731,307.354-252.46,300.87c-5.28-4.431,222.083-301.952,222.083-301.952
				S20.35,283.956,14.565,279.103C10.38,275.59,205.363,14.743,205.363,14.743c-5.768-4.84-180.957,234.793-190.38,226.886
				l158.906-227.25L15.394,203.267c0,0,132.219-183.285,125.807-188.666C134.294,8.806,16.288,164.732,15.665,164.209
				c0,0,95.15-145.269,92.258-147.696L14.956,127.307c0,0,64.798-109.283,62.073-111.569c-0.983-0.826-63,75.863-63.386,75.54
				C12.405,90.238,45.67,15.048,45.662,15.04c-0.975-0.818-30.2,35.99-30.2,35.99"/>
		</g>
	</g>
	<g>
		<rect x="15.001" y="87.937" fill="none" width="469.999" height="309.12"/>
		<path fill="#FFFFFF" d="M157.706,172.765c0,0.287-0.073,5.756-0.213,16.413c-0.146,10.658-0.426,24.021-0.853,40.074
			c-0.426,16.06-0.786,33.325-1.066,51.797c-0.287,18.478-0.64,35.67-1.066,51.584c-0.426,15.92-0.786,29.136-1.066,39.646
			c-0.286,10.519-0.573,15.774-0.853,15.774c-0.573-0.287-2.345-0.427-5.329-0.427c-2.984,0-6.328,0.14-10.019,0.427
			c-4.263,0.279-8.953,0.565-14.068,0.853c-0.287-17.619-0.853-36.377-1.705-56.273c-0.573-17.053-1.279-36.091-2.132-57.126
			c-0.853-21.029-1.992-42.205-3.41-63.521c-4.55,0.287-8.173,0.64-10.871,1.066c-2.705,0.426-6.468,0.786-11.297,1.065
			c-0.853-8.526-1.426-15.273-1.706-20.25c-0.286-4.969-0.573-9.519-0.853-13.642c-0.286-4.117-0.426-6.321-0.426-6.608
			L157.706,172.765z M105.909,137.168c-2.705,4.409-3.697,8.386-2.984,11.937c0.706,3.558,3.051,6.468,7.034,8.739
			c3.977,2.278,9.519,3.271,16.626,2.984c7.953-0.279,14.208-1.985,18.758-5.115c4.543-3.125,7.527-6.821,8.953-11.085
			c1.418-4.263,1.559-8.526,0.426-12.789c-1.139-4.263-3.344-7.674-6.608-10.231c-3.271-2.558-7.394-3.837-12.363-3.837
			c-4.976,0-10.591,2.132-16.839,6.395C112.943,128.429,108.607,132.765,105.909,137.168z"/>
		<path fill="#FFFFFF" d="M185.413,168.502c0.566,0.286,2.345,0.426,5.329,0.426c2.984,0,6.321-0.14,10.018-0.426
			c4.263-0.28,8.953-0.566,14.068-0.853l2.132,26.432c8.24-5.683,18.611-10.658,31.121-14.921
			c12.503-4.264,27.564-6.108,45.189-5.543c17.333,0.573,31.974,3.91,43.91,10.019c11.937,6.115,21.882,14.142,29.842,24.087
			c7.953,9.952,14.208,21.103,18.758,33.466c4.542,12.363,7.887,25.086,10.018,38.155c2.132,13.075,3.337,25.865,3.624,38.368
			c0.28,12.51,0.213,23.733-0.213,33.679c-0.426,9.951-0.926,18.118-1.492,24.513c-0.573,6.395-0.573,10.019,0,10.871l-54.995,0.853
			c5.116-34.958,6.821-66.219,5.116-93.789c-0.853-11.65-2.491-23.021-4.902-34.104c-2.418-11.085-6.042-20.89-10.871-29.416
			c-4.836-8.526-11.23-15.274-19.184-20.25c-7.96-4.969-17.625-7.174-28.989-6.607c-7.394,0.572-14.282,1.991-20.676,4.263
			c-6.395,2.278-12.223,5.189-17.479,8.739c-5.262,3.558-9.952,7.395-14.068,11.511c-4.123,4.123-7.747,8.313-10.871,12.576
			l11.937,145.799h-22.595c-2.844,0-5.542,0.073-8.1,0.214c-2.558,0.146-4.976,0.213-7.248,0.213h-6.821
			c-0.287-12.503-0.5-23.874-0.64-34.105c-0.146-10.231-0.36-21.882-0.64-34.957c-0.286-13.069-0.5-26.498-0.639-40.287
			c-0.146-13.782-0.287-27.211-0.426-40.286c-0.146-13.069-0.287-24.727-0.426-34.958c-0.147-10.231-0.213-18.398-0.213-24.513
			C184.986,171.56,185.126,168.502,185.413,168.502z"/>
	</g>
</g>
</svg>
