<?xml version="1.0" encoding="utf-8"?>
<!-- Generator: Adobe Illustrator 16.0.0, SVG Export Plug-In . SVG Version: 6.00 Build 0)  -->
<!DOCTYPE svg PUBLIC "-//W3C//DTD SVG 1.1//EN" "http://www.w3.org/Graphics/SVG/1.1/DTD/svg11.dtd">
<svg version="1.1" id="Camada_1" xmlns="http://www.w3.org/2000/svg" xmlns:xlink="http://www.w3.org/1999/xlink" x="0px" y="0px"
	 width="500px" height="500px" viewBox="0 0 500 500" enable-background="new 0 0 500 500" xml:space="preserve">
<g>
	<g>
		<g>
			<path fill="none" stroke="#cccccc" stroke-width="12.7894" stroke-linecap="round" stroke-linejoin="round" d="M486.514,478.155
				c-0.168-0.141-6.175,7.433-6.211,7.402c-1.296-1.088,5.139-43.924,5.139-43.924c-1.667-1.398-33.183,42.934-34.851,41.533
				c-2.21-1.854,35.113-76.742,33.184-78.361c-2.448-2.054-64.658,83.437-67.8,80.801c-1.846-1.549,71.25-115.857,67.469-119.03
				c0,0-96.775,117.641-97.912,116.687c-3.492-2.93,102.26-152.299,98.455-155.491c-6.41-5.379-129.372,161.435-132.944,158.437
				c0,0,139.504-192.106,133.125-197.459c-5.041-4.23-165.436,197.158-165.436,197.158s171.537-230.705,165.876-235.455
				c-0.473-0.396-188.85,242.476-197.424,235.281c-3.082-2.586,199.425-275.884,199.158-276.107
				c-9.582-8.04-225.001,282.532-232.085,276.589c-1.067-0.896,232.052-312.806,231.202-313.52c0,0-252.574,317.271-260.583,310.552
				c0,0,271.843-335.489,259.214-346.086c-2.78-2.333-290.574,346.293-290.574,346.293C180.762,472.753,485.141,97.7,485.141,97.7
				s-323.59,385.841-323.689,385.757L486.209,57.814c-19.066-15.998-354.958,431.907-359.333,428.237
				C110.667,472.45,487.144,26.304,483.716,23.427c-0.43-0.36-374.479,473.012-387.638,461.97
				C76.161,468.685,479.259,29.648,460.285,13.728C439.355-3.834,78.842,497.046,64.694,485.175
				c0,0,372.932-463.949,363.466-471.893C410.959-1.15,54.262,504.656,31.72,485.741c-7.542-6.328,362.208-469.132,362.208-469.132
				C372.766-1.146,24.38,478.68,13.714,469.73C4.459,461.965,374.361,25.089,362.848,15.428
				C345.141,0.57,17.772,432.459,14.923,430.068c0,0,321.925-412.878,317.469-416.617c0,0-311.749,385.312-318.536,379.616
				c-12.28-10.305,303.153-363,285.197-378.066c0,0-278.135,341.513-283.081,337.362L266.58,16.046
				c-5.294-4.441-244.732,307.356-252.461,300.871C8.84,312.486,236.203,14.964,236.203,14.964S20.349,283.956,14.564,279.103
				C10.379,275.59,205.362,14.743,205.362,14.743c-5.769-4.84-180.957,234.793-190.38,226.886l158.905-227.25L15.393,203.267
				c0,0,132.22-183.285,125.808-188.666C134.293,8.806,16.287,164.732,15.664,164.209c0,0,95.151-145.27,92.259-147.696
				L14.955,127.307c0,0,64.798-109.283,62.072-111.57c-0.983-0.825-63,75.864-63.386,75.541C12.403,90.238,45.67,15.048,45.66,15.04
				c-0.975-0.818-30.199,35.99-30.199,35.99"/>
		</g>
	</g>
	<g>
		<g>
			<path fill="#1C87BD" d="M157.705,172.765c0,0.287-0.072,5.756-0.213,16.413c-0.146,10.658-0.426,24.021-0.852,40.074
				c-0.427,16.06-0.787,33.325-1.066,51.797c-0.287,18.478-0.64,35.67-1.066,51.584c-0.426,15.92-0.785,29.136-1.065,39.646
				c-0.286,10.519-0.573,15.774-0.853,15.774c-0.572-0.287-2.345-0.427-5.328-0.427c-2.984,0-6.328,0.14-10.02,0.427
				c-4.263,0.279-8.952,0.565-14.068,0.853c-0.286-17.619-0.852-36.377-1.705-56.273c-0.572-17.053-1.279-36.091-2.131-57.126
				c-0.854-21.029-1.992-42.205-3.41-63.521c-4.551,0.287-8.174,0.64-10.871,1.066c-2.705,0.426-6.469,0.786-11.298,1.065
				c-0.853-8.526-1.426-15.273-1.706-20.25c-0.285-4.969-0.572-9.519-0.852-13.642c-0.287-4.117-0.427-6.321-0.427-6.608
				L157.705,172.765z M105.908,137.168c-2.704,4.409-3.696,8.386-2.984,11.937c0.707,3.558,3.051,6.468,7.035,8.739
				c3.977,2.278,9.519,3.271,16.626,2.984c7.953-0.279,14.208-1.985,18.758-5.115c4.543-3.125,7.526-6.821,8.952-11.085
				c1.419-4.263,1.559-8.526,0.427-12.789c-1.14-4.263-3.345-7.674-6.608-10.231c-3.27-2.558-7.394-3.837-12.363-3.837
				c-4.975,0-10.591,2.132-16.839,6.395C112.943,128.429,108.606,132.765,105.908,137.168z"/>
			<path fill="#1C87BD" d="M185.412,168.502c0.566,0.286,2.345,0.426,5.329,0.426c2.983,0,6.321-0.14,10.019-0.426
				c4.263-0.28,8.952-0.566,14.068-0.853l2.131,26.432c8.24-5.683,18.611-10.658,31.121-14.921
				c12.503-4.264,27.564-6.108,45.189-5.543c17.332,0.573,31.974,3.91,43.91,10.019c11.938,6.115,21.882,14.142,29.842,24.087
				c7.953,9.952,14.209,21.103,18.758,33.466c4.543,12.363,7.887,25.086,10.019,38.155c2.132,13.075,3.337,25.865,3.624,38.368
				c0.279,12.51,0.213,23.733-0.213,33.679c-0.427,9.951-0.926,18.118-1.492,24.513c-0.573,6.395-0.573,10.019,0,10.871
				l-54.995,0.853c5.116-34.958,6.821-66.219,5.116-93.789c-0.854-11.65-2.492-23.021-4.902-34.104
				c-2.418-11.085-6.042-20.89-10.871-29.416c-4.836-8.526-11.23-15.274-19.185-20.25c-7.96-4.969-17.626-7.174-28.989-6.607
				c-7.395,0.572-14.281,1.991-20.676,4.263c-6.395,2.278-12.224,5.189-17.479,8.739c-5.263,3.558-9.952,7.395-14.068,11.511
				c-4.123,4.123-7.747,8.313-10.87,12.576l11.936,145.799h-22.594c-2.845,0-5.543,0.073-8.1,0.214
				c-2.559,0.146-4.977,0.213-7.248,0.213h-6.82c-0.287-12.503-0.5-23.874-0.641-34.105c-0.146-10.231-0.359-21.882-0.639-34.957
				c-0.287-13.069-0.5-26.498-0.64-40.287c-0.146-13.782-0.286-27.211-0.427-40.286c-0.146-13.069-0.286-24.727-0.426-34.958
				c-0.146-10.231-0.213-18.398-0.213-24.513C184.986,171.56,185.125,168.502,185.412,168.502z"/>
		</g>
	</g>
</g>
</svg>
