<?xml version="1.0" encoding="utf-8"?>
<!-- Generator: Adobe Illustrator 16.0.0, SVG Export Plug-In . SVG Version: 6.00 Build 0)  -->
<!DOCTYPE svg PUBLIC "-//W3C//DTD SVG 1.1//EN" "http://www.w3.org/Graphics/SVG/1.1/DTD/svg11.dtd">
<svg version="1.1" xmlns="http://www.w3.org/2000/svg" xmlns:xlink="http://www.w3.org/1999/xlink" x="0px" y="0px"
	 width="1417.324px" height="396.852px" viewBox="0 0 1417.324 396.852" enable-background="new 0 0 1417.324 396.852"
	 xml:space="preserve">
<g id="Camada_1">
</g>
<g id="Camada_2">
	<g>
		<g>
			<path fill="none" stroke="#99FF00" stroke-width="8.4659" stroke-linecap="round" stroke-linejoin="round" d="M346.646,349.441
				c-0.111-0.094-4.088,4.92-4.113,4.899c-0.857-0.72,3.402-29.073,3.402-29.073c-1.104-0.926-21.965,28.42-23.068,27.493
				c-1.465-1.228,23.242-50.8,21.965-51.872c-1.621-1.359-42.801,55.232-44.881,53.487c-1.223-1.025,47.166-76.694,44.664-78.794
				c0,0-64.064,77.875-64.816,77.244c-2.313-1.94,67.691-100.816,65.174-102.93c-4.242-3.561-85.641,106.863-88.004,104.879
				c0,0,92.346-127.166,88.123-130.71c-3.338-2.8-109.512,130.513-109.512,130.513s113.551-152.719,109.805-155.863
				c-0.313-0.262-125.012,160.511-130.688,155.748c-2.041-1.712,132.01-182.624,131.834-182.772
				c-6.342-5.321-148.941,187.026-153.631,183.091c-0.707-0.592,153.609-207.064,153.047-207.537
				c0,0-167.195,210.022-172.496,205.574c0,0,179.949-222.082,171.59-229.096c-1.84-1.545-192.35,229.233-192.35,229.233
				c-8.441-7.084,193.045-255.354,193.045-255.354s-214.205,255.413-214.27,255.357l214.979-281.76
				C333.822,60.608,111.475,357.105,108.58,354.676C97.85,345.673,347.064,50.341,344.793,48.437
				C344.51,48.197,96.902,361.553,88.191,354.243C75.008,343.181,341.836,52.565,329.275,42.026
				C315.422,30.401,76.781,361.955,67.416,354.098c0,0,246.857-307.106,240.592-312.365C296.623,32.18,60.51,366.994,45.588,354.474
				C40.596,350.285,285.35,43.937,285.35,43.937C271.344,32.184,40.758,349.764,33.699,343.841
				c-6.125-5.14,238.697-294.292,231.074-300.687C253.055,33.32,36.385,319.17,34.498,317.588c0,0,213.066-273.267,210.115-275.742
				c0,0-206.33,255.02-210.822,251.25c-8.127-6.82,200.637-240.251,188.754-250.223c0,0-184.08,226.026-187.354,223.279
				L201.049,43.565c-3.504-2.939-161.971,203.417-167.086,199.124c-3.492-2.932,146.977-199.84,146.977-199.84
				S38.086,220.872,34.258,217.66c-2.77-2.324,126.266-174.956,126.266-174.956c-3.816-3.202-119.754,155.384-125.99,150.151
				L139.691,42.464L34.805,167.462c0,0,87.49-121.29,83.246-124.851c-4.568-3.834-82.656,99.345-83.068,98.998
				c0,0,62.955-96.125,61.041-97.731l-61.51,73.306c0,0,42.861-72.306,41.059-73.818c-0.65-0.546-41.674,50.183-41.928,49.969
				c-0.82-0.688,21.17-50.425,21.164-50.43c-0.645-0.541-19.961,23.79-19.961,23.79"/>
		</g>
	</g>
</g>
<g id="Camada_3">
	<path d="M156.072,143.053c4.02-0.458,9.143-1.147,15.35-2.07l-2.758-48.645l38.293,0.346c0,0.232-0.057,4.371-0.17,12.42
		c-0.119,8.054-0.291,18.404-0.52,31.051c4.369-0.459,8.566-1.035,12.592-1.727c4.023-0.69,7.531-1.26,10.523-1.723
		c3.451-0.691,6.67-1.15,9.662-1.381l0.689,15.18c0.227,3.913,0.457,7.418,0.689,10.522c0.227,3.104,0.346,4.544,0.346,4.312
		c-3.684,0-7.133,0.061-10.352,0.174c-3.223,0.119-6.959,0.231-11.213,0.345c-4.258,0.118-8.682,0.291-13.281,0.518
		c-0.232,10.351-0.404,20.99-0.518,31.913c-0.117,10.926-0.232,21.621-0.344,32.084c-0.119,10.469-0.234,20.415-0.346,29.842
		c-0.119,9.435-0.23,17.654-0.346,24.67c-0.119,7.017-0.406,14.661-0.863,22.941c-0.463-0.228-1.898-0.346-4.311-0.346
		c-2.416,0-5.123,0.118-8.107,0.346c-3.453,0.226-7.246,0.456-11.385,0.688c-0.465-14.257-1.154-29.205-2.072-44.851
		c-0.688-13.334-1.496-28.342-2.414-45.021c-0.922-16.674-1.842-33.637-2.762-50.887c-5.982,0.23-10.865,0.404-14.66,0.517
		c-3.797,0.12-5.693,0.059-5.693-0.173c-0.463-4.365-0.863-7.814-1.207-10.349c-0.346-2.528-0.75-5.866-1.207-10.007
		C149.922,143.742,152.045,143.518,156.072,143.053z"/>
</g>
<g id="Camada_4">
	<g>
		<g>
			<path fill="none" stroke="#00CCFF" stroke-width="8.4659" stroke-linecap="round" stroke-linejoin="round" d="M692.439,350.26
				l-2.15,2.563c-0.742-0.623,1.902-27.665,1.838-27.72c-1.133-0.951-24.006,30.989-25.178,30.006
				c-1.025-0.859,26.445-54.053,25.217-55.082c-0.4-0.336-45.936,54.746-45.936,54.746c-0.357-0.299,48.111-77.941,45.947-79.756
				c-1.564-1.313-65.484,78.041-65.484,78.041c-3.857-3.236,64.42-101.589,64.42-101.589c-2.51-2.106-83.205,102.901-85.047,101.355
				c-4.223-3.544,87.383-128.782,86.879-129.204c0,0-106.275,131.189-108.508,129.316c-4.943-4.146,109.105-150.88,106.885-152.742
				L562.578,353.626l130.098-180.445c-7.775-6.524-152.242,181.436-152.242,181.436c-4.289-3.599,157.123-199.014,150.869-204.263
				c-7.115-5.971-170.141,202.766-170.141,202.766c-2.711-2.275,177.275-221.471,170.004-227.572L498.824,354.77
				c-9.959-8.356,199.74-250.859,193.654-255.967c-3.508-2.942-202.313,266.411-214.773,255.956
				c-1.748-1.466,214.119-280.723,214.119-280.723c-7.293-6.12-224.471,290.512-235.793,281.01
				C453.818,353.19,692.705,48.24,692.705,48.24c-3.561-2.987-256.078,305.183-256.078,305.183
				c-5.434-4.56,239.988-311.146,239.988-311.146c-14.467-12.139-259.941,314.198-262.113,312.376
				C401.922,344.098,655.58,41.964,655.58,41.964c-3.256-2.733-249.068,322.881-261.896,312.116
				c-13.035-10.938,251.004-302.114,239.82-311.498c-5.98-5.018-252.059,300.393-252.059,300.393
				c-11.063-9.283,240.98-292.865,231.613-300.727C612.357,41.661,387.93,323.606,381.5,318.21L590.803,43.4
				C579.99,34.327,382.625,294.294,381.25,293.139c0,0,196.664-243.977,188.873-250.514
				c-5.889-4.941-181.031,230.923-188.504,224.651C378.607,264.75,552.68,45.656,549.348,42.86
				c-5.164-4.333-168.352,200.634-168.352,200.634c-5.93-4.977,147.27-200.624,147.27-200.624S388.031,224.063,381.104,218.251
				c-0.041-0.035,128.432-174.84,126.668-176.318c-4.572-3.838-122.031,155.556-127.018,151.373
				c-3.807-3.196,107.736-147.42,104.678-149.987L381.221,167.512c-0.283-0.236,83.49-124.399,83.49-124.399
				c-3.35-2.812-80.355,104.43-84.621,100.849c-2.316-1.942,63.174-99.932,63.174-99.932c-3.307-2.773-62.076,75.992-63.066,75.16
				l42.684-75.738c-2.309-1.937-42.326,50.44-42.326,50.44c-1.055-0.886,20.842-49.454,20.314-49.896
				c-1.057-0.888-17.861,23.53-18.965,22.603"/>
		</g>
	</g>
</g>
<g id="Camada_5">
	<g>
		<path d="M613.537,175.915c8.393,0,15.854,1.362,22.383,4.081c6.531,2.722,12.125,6.491,16.787,11.307
			c4.66,4.82,8.313,10.456,10.959,16.904c2.639,6.451,4.348,13.328,5.125,20.634c0.623,7.46-0.037,14.884-1.982,22.265
			c-1.941,7.385-5.242,14.105-9.904,20.168c-4.666,6.063-10.65,11.039-17.953,14.922c-7.311,3.887-15.936,6.061-25.879,6.527
			c-9.951,0.466-19.004-0.583-27.164-3.147s-15.078-6.528-20.752-11.89c-5.674-5.363-9.832-12.084-12.471-20.167
			c-2.646-8.08-3.498-17.487-2.566-28.212c0.934-10.724,3.615-19.545,8.045-26.462c4.43-6.915,9.711-12.356,15.855-16.32
			c6.139-3.966,12.705-6.722,19.699-8.277C600.715,176.695,607.318,175.915,613.537,175.915z M608.406,275.236
			c7.461,0,13.793-2.058,19.002-6.178c5.207-4.115,9.129-9.21,11.777-15.271c2.639-6.063,4.076-12.626,4.313-19.7
			c0.232-7.071-0.818-13.64-3.148-19.703c-2.332-6.062-6.025-11.034-11.076-14.921c-5.053-3.883-11.463-5.748-19.232-5.595
			c-9.643,0.313-17.645,2.528-24.016,6.645c-6.377,4.12-11.23,9.173-14.572,15.154c-3.344,5.985-5.053,12.474-5.129,19.469
			c-0.08,6.993,1.4,13.485,4.43,19.467c3.031,5.987,7.693,10.923,13.99,14.806C591.037,273.295,598.928,275.236,608.406,275.236z"/>
		<circle cx="632.184" cy="257.17" r="22.799"/>
	</g>
	<g>
		<path d="M467.373,175.915c8.393,0,15.852,1.362,22.381,4.081c6.529,2.722,12.127,6.491,16.787,11.307
			c4.664,4.82,8.314,10.456,10.959,16.904c2.641,6.451,4.35,13.328,5.127,20.634c0.623,7.46-0.037,14.884-1.98,22.265
			c-1.945,7.385-5.246,14.105-9.906,20.168c-4.666,6.063-10.65,11.039-17.953,14.922c-7.311,3.887-15.938,6.061-25.881,6.527
			c-9.949,0.466-19.002-0.583-27.162-3.147s-15.078-6.528-20.75-11.89c-5.676-5.363-9.83-12.084-12.473-20.167
			c-2.646-8.08-3.5-17.487-2.566-28.212c0.932-10.724,3.617-19.545,8.047-26.462c4.43-6.915,9.709-12.356,15.85-16.32
			c6.141-3.966,12.711-6.722,19.703-8.277C454.549,176.695,461.154,175.915,467.373,175.915z M462.242,275.236
			c7.461,0,13.793-2.058,19.004-6.178c5.205-4.115,9.127-9.21,11.773-15.271c2.639-6.063,4.078-12.626,4.313-19.7
			c0.234-7.071-0.816-13.64-3.146-19.703c-2.332-6.062-6.025-11.034-11.076-14.921c-5.055-3.883-11.465-5.748-19.236-5.595
			c-9.637,0.313-17.641,2.528-24.014,6.645c-6.373,4.12-11.229,9.173-14.57,15.154c-3.342,5.985-5.055,12.474-5.129,19.469
			c-0.08,6.993,1.4,13.485,4.43,19.467c3.031,5.987,7.693,10.923,13.99,14.806C444.875,273.295,452.758,275.236,462.242,275.236z"/>
		<circle cx="486.019" cy="257.17" r="22.796"/>
	</g>
</g>
<g id="Camada_6">
	<g>
		<g>
			<path fill="none" stroke="#FF0000" stroke-width="8.4659" stroke-linecap="round" stroke-linejoin="round" d="M1037.803,349.883
				c-0.137-0.116-2.939,3.813-3.092,3.686c-0.746-0.626,2.104-27.385,1.801-27.64c-0.061-0.051-22.434,28.191-23.15,27.59
				c-1.779-1.493,24.938-52.463,23.664-53.53c0,0-44.857,54.507-45.373,54.074c-1.701-1.429,45.006-79.191,45.006-79.191
				c-3.861-3.239-64.203,81.055-66.438,79.178l67.018-104.705c0,0-86.672,106.885-88.441,105.4
				c-0.551-0.463,92.355-128.499,89.248-131.106c-0.676-0.567-104.891,132.891-108.773,129.632
				c-6.123-5.138,107.727-153.453,107.727-153.453c-6.74-5.656-124.639,159.969-130.266,155.246
				c-8.346-7.001,133.352-176.607,129.461-179.871c-2.053-1.722-146.75,180.965-149.74,178.456l150.311-203.958
				c-6.859-5.755-171.969,204.943-171.969,204.943c-1.465-1.229,173.236-231.041,173.23-231.046
				c-5.277-4.429-190.225,234.208-193.922,231.105c-7.328-6.149,193.951-255.722,193.951-255.722
				c-3.73-3.131-214.457,255.58-214.457,255.58s215.34-279.295,213.988-280.428c-3.365-2.825-234.174,280.732-234.988,280.05
				c-4.135-3.471,233.867-304.085,233.867-304.085c-3.162-2.653-254.328,303.458-254.506,303.309
				C768.307,341.94,1024,43.861,1021.746,41.97c-11.404-9.567-261.688,311.866-261.688,311.866
				c-6.609-5.547,252.658-301.211,240.283-311.592c-0.418-0.353-249.125,321.021-261.004,311.054
				C726.725,342.715,991.148,51.534,979.857,42.06c-5.508-4.622-250.896,303.049-252.887,301.379
				c-0.74-0.622,243.828-288.122,230.236-299.526c-6.869-5.764-231.961,276.443-231.961,276.443S943.844,49.853,936.635,43.803
				c-4.064-3.41-210.434,250.784-210.434,250.784C715.1,285.271,918.588,44.364,916.393,42.522
				C905.621,33.483,725.951,269.48,725.951,269.48c-5.113-4.29,175.924-221.396,169.512-226.776
				c-4.664-3.913-165.338,206.699-170.092,202.709L873.469,43.389L726.496,218.545c-3.779-3.17,127.332-176.33,127.332-176.33
				c-1.074-0.902-125.166,156.157-128.607,153.27c-2.781-2.334,113.834-148.326,107.533-153.613
				c-5.979-5.018-104.953,129.948-107.352,127.937c-0.43-0.36,85.377-127.105,85.377-127.105
				c-2.473-2.074-82.863,103.01-84.959,101.251c0,0,68.348-97.95,64.055-101.551c-2.693-2.26-63.932,76.191-63.932,76.191
				c-2.039-1.711,43.525-73.186,41.58-74.818c0,0-40.52,50.453-41.584,49.56c-0.902-0.756,22.111-48.551,20.729-49.71
				c0,0-19.674,25.906-20.885,24.89"/>
		</g>
	</g>
</g>
<g id="Camada_7">
	<path d="M795.133,115.502c0.459,0.232,1.896,0.345,4.313,0.345c2.414,0,5.115-0.112,8.107-0.345
		c3.449-0.228,7.244-0.457,11.387-0.689l1.723,21.389c6.668-4.598,15.063-8.625,25.186-12.074c10.119-3.45,22.307-4.943,36.57-4.486
		c14.027,0.465,25.873,3.164,35.535,8.109c9.66,4.947,17.709,11.444,24.15,19.49c6.438,8.056,11.498,17.079,15.178,27.085
		c3.678,10.003,6.385,20.3,8.109,30.878c1.725,10.581,2.701,20.929,2.934,31.048c0.225,10.125,0.172,19.208-0.176,27.255
		c-0.344,8.055-0.748,14.662-1.207,19.838c-0.463,5.175-0.463,8.107,0,8.798l-44.502,0.69c4.139-28.291,5.518-53.589,4.139-75.899
		c-0.691-9.429-2.018-18.631-3.969-27.602c-1.955-8.97-4.889-16.906-8.795-23.806c-3.914-6.898-9.09-12.359-15.525-16.387
		c-6.443-4.021-14.266-5.805-23.463-5.347c-5.98,0.464-11.555,1.611-16.732,3.448c-5.172,1.844-9.891,4.201-14.143,7.074
		c-4.258,2.879-8.055,5.982-11.385,9.314c-3.34,3.338-6.27,6.727-8.799,10.178l9.66,117.989h-18.283
		c-2.303,0-4.484,0.06-6.559,0.173c-2.068,0.117-4.025,0.173-5.863,0.173h-5.52c-0.232-10.119-0.404-19.321-0.518-27.601
		c-0.119-8.279-0.291-17.708-0.518-28.29c-0.234-10.575-0.404-21.443-0.516-32.602c-0.121-11.155-0.234-22.02-0.348-32.603
		c-0.117-10.576-0.232-20.012-0.344-28.291c-0.117-8.279-0.172-14.889-0.172-19.836C794.789,117.977,794.9,115.502,795.133,115.502z
		"/>
</g>
<g id="Camada_8">
	<g>
		<g>
			<path fill="none" stroke="#FFCC00" stroke-width="8.4659" stroke-linecap="round" stroke-linejoin="round" d="M1382.314,351.205
				l-2.174,2.588c-0.135-0.113,1.762-27.372,1.762-27.372l-22.336,26.619c-1.063-0.892,22.799-52.519,22.799-52.519
				c-1.52-1.273-41.758,54.775-44.227,52.705c-0.635-0.533,45.961-76.149,44.197-77.63c-0.563-0.472-61.846,80.421-65.152,77.646
				c-3.529-2.963,66.223-103.299,66.1-103.402c-2.021-1.697-85.648,103.606-86.404,102.973
				c-5.785-4.854,88.268-124.854,85.535-127.146c0,0-101.59,133.33-107.627,128.264L1382.5,200.154
				c-2.906-2.439-121.58,159.767-128.902,153.621c0,0,131.531-178.029,129.383-179.832c-3.258-2.733-143.635,187.98-151.908,181.039
				c-3.535-2.967,151.525-206.146,151.525-206.146s-170.334,205.251-171.443,204.32l171.264-229.38
				c-5.146-4.317-186.779,234.744-192.762,229.724c-12.063-10.122,200.008-250.659,194-255.699c0,0-210.855,259.188-214.746,255.924
				c0,0,226.033-268.717,213.629-279.125c-3.623-3.041-226.631,286.285-234.605,279.594c0,0,243.918-296.383,234.217-304.524
				c-10.479-8.792-247.068,312.885-256.148,305.266c-0.629-0.527,243.051-310.148,241.09-311.795
				c0,0-248.719,322.097-261.367,311.484c-14.59-12.243,240.408-312.152,240.377-312.179
				c-8.348-7.004-256.738,316.467-261.908,312.129c-13.67-11.471,243.709-308.338,240.152-311.322
				c-8.959-7.518-241.668,311.149-253.063,301.589c-14.48-12.15,234.43-299.744,232.234-301.587
				c0,0-217.561,286.098-230.768,275.017c-9.814-8.235,219.215-266.636,209.783-274.55
				c-4.143-3.477-205.002,254.133-209.838,250.074c-10.84-9.094,194.795-247.708,190.012-251.723
				c-2.418-2.028-180.432,236.537-191.021,227.651c0,0,177.953-218.887,168.984-226.414c0,0-159.086,208.723-168.506,200.817
				c0,0,154.932-193.568,146.887-200.32c-3.195-2.68-147.828,176.297-147.889,176.246c-0.639-0.535,131.855-171.975,126.545-176.429
				c-0.451-0.38-124.982,151.787-126.379,150.614c-2.584-2.168,113.268-146.628,106.762-152.086
				c0,0-102.176,129.217-105.844,126.139c-3.484-2.924,88.412-122.049,84.115-125.655c-4.943-4.147-84.895,101.173-84.895,101.173
				s64.494-101.44,64.432-101.494c-2.076-1.741-61.691,78.99-64.385,76.73c-3.232-2.712,42.422-75.199,42.209-75.378
				c-0.703-0.588-42.574,51.062-42.734,50.928c-0.922-0.774,22.75-50.7,21.902-51.41c-0.398-0.335-20.633,24.913-20.791,24.779"/>
		</g>
	</g>
</g>
<g id="Camada_9">
	<path d="M1196.26,316.188c0,0.404-0.869,0.048-2.598-1.069c-1.729-1.12-3.713-2.394-5.951-3.815
		c-2.443-1.632-5.191-3.563-8.244-5.801l41.215-87.008l-81.818-109.6c-0.203-0.2,1.17-1.475,4.121-3.815
		c2.949-2.339,6.209-4.886,9.77-7.633c3.561-2.748,8.496-6.359,14.807-10.839c8.139,13.029,16.18,25.851,24.119,38.466
		c3.25,5.497,6.715,11.197,10.379,17.099c3.664,5.906,7.326,11.754,10.992,17.553c3.662,5.801,7.172,11.448,10.531,16.945
		c3.357,5.494,6.563,10.584,9.619,15.264c6.51-14.042,12.971-27.73,19.385-41.062c6.41-13.328,12.057-25.187,16.943-35.566
		c5.697-12.212,11.191-23.813,16.486-34.804c6.305,3.663,11.342,6.564,15.111,8.7c3.764,2.137,7.176,4.122,10.227,5.954
		c3.053,1.831,4.475,2.748,4.273,2.748c-0.205,0-2.037,3.105-5.496,9.311c-3.463,6.211-7.988,14.4-13.582,24.577
		c-5.602,10.179-11.961,21.78-19.082,34.802c-7.127,13.027-14.4,26.359-21.828,39.994c-7.432,13.639-14.707,27.02-21.83,40.146
		c-7.125,13.129-13.484,24.775-19.08,34.956c-5.6,10.173-10.074,18.419-13.434,24.728
		C1197.939,312.725,1196.26,315.982,1196.26,316.188z"/>
</g>
<g id="Camada_10">
</g>
<g id="Camada_11">
</g>
</svg>
