<?xml version="1.0" encoding="utf-8"?>
<!-- Generator: Adobe Illustrator 16.0.0, SVG Export Plug-In . SVG Version: 6.00 Build 0)  -->
<!DOCTYPE svg PUBLIC "-//W3C//DTD SVG 1.1//EN" "http://www.w3.org/Graphics/SVG/1.1/DTD/svg11.dtd">
<svg version="1.1" id="Camada_1" xmlns="http://www.w3.org/2000/svg" xmlns:xlink="http://www.w3.org/1999/xlink" x="0px" y="0px"
	 width="500px" height="500px" viewBox="0 0 500 500" enable-background="new 0 0 500 500" xml:space="preserve">
<g>
	<g>
		<g>
			<path fill="none" stroke="#CCCCCC" stroke-width="12.7895" stroke-linecap="round" stroke-linejoin="round" d="M484.278,480.819
				c0,0-3.276,3.914-3.28,3.91c-0.206-0.172,2.656-41.351,2.656-41.351l-33.741,40.211c-1.603-1.345,34.443-79.337,34.443-79.337
				c-2.294-1.925-63.082,82.747-66.809,79.62c-0.961-0.806,69.428-115.038,66.764-117.274
				c-0.85-0.712-93.425,121.488-98.422,117.295c-5.333-4.475,100.039-156.05,99.853-156.206
				c-3.054-2.563-129.385,156.514-130.526,155.556c-8.738-7.333,133.34-188.611,129.212-192.075
				c0,0-153.464,201.417-162.586,193.762l162.719-232.303c-4.391-3.684-183.666,241.352-194.729,232.069
				c0,0,198.7-268.942,195.455-271.665c-4.923-4.13-216.985,283.972-229.482,273.486c-5.342-4.482,228.902-311.417,228.902-311.417
				S227.392,485.163,225.715,483.756l258.719-346.513c-7.771-6.521-282.156,354.618-291.195,347.033
				C175.016,468.985,495.381,105.615,486.306,98c0,0-318.529,391.544-324.406,386.613c0,0,341.457-405.939,322.719-421.662
				c-5.474-4.594-342.362,432.479-354.409,422.37c0,0,368.478-447.735,353.821-460.033C468.201,12.005,110.795,497.95,97.078,486.44
				c-0.949-0.796,367.18-468.544,364.217-471.03c0,0-375.739,486.593-394.847,470.56C44.406,467.474,429.634,14.399,429.585,14.358
				C416.977,3.778,41.729,492.446,33.92,485.894C13.269,468.565,402.092,20.083,396.722,15.577
				C383.184,4.217,31.588,485.685,14.375,471.241C-7.504,452.883,368.572,18.362,365.256,15.579
				c0,0-328.712,432.264-348.665,415.522C1.761,418.657,347.805,28.239,333.554,16.282C327.296,11.03,23.814,400.255,16.507,394.124
				C0.132,380.383,310.833,19.857,303.605,13.792c-3.654-3.065-272.621,357.392-288.622,343.966c0,0,268.885-330.726,255.33-342.1
				c0,0-240.372,315.372-254.606,303.429c0,0,234.105-292.478,221.947-302.679C232.83,12.36,14.287,282.793,14.195,282.716
				c-0.964-0.809,199.241-259.854,191.22-266.585c-0.684-0.573-188.856,229.358-190.968,227.586
				c-3.904-3.276,171.162-221.562,161.331-229.811c0,0-154.401,195.263-159.943,190.613
				c-5.266-4.418,133.614-184.434,127.119-189.884c-7.47-6.268-128.295,152.896-128.295,152.896s97.477-153.3,97.381-153.381
				c-3.137-2.631-93.237,119.385-97.309,115.968c-4.885-4.098,64.132-113.655,63.81-113.926
				c-1.062-0.89-64.361,77.191-64.602,76.989c-1.396-1.171,34.413-76.646,33.135-77.719c-0.606-0.508-31.215,37.688-31.455,37.486"
				/>
		</g>
	</g>
	<g>
		<rect x="15.002" y="22.256" fill="none" width="469.998" height="299.578"/>
		<path d="M205.877,435.35c0,0.566-1.211,0.067-3.623-1.492c-2.418-1.565-5.189-3.344-8.313-5.329
			c-3.411-2.278-7.248-4.976-11.512-8.1l57.553-121.5L125.73,145.882c-0.286-0.28,1.633-2.058,5.756-5.329
			c4.116-3.264,8.666-6.821,13.642-10.658c4.97-3.837,11.863-8.879,20.677-15.134c11.363,18.191,22.594,36.097,33.678,53.715
			c4.543,7.674,9.379,15.634,14.495,23.874c5.116,8.247,10.231,16.413,15.347,24.513c5.117,8.1,10.02,15.987,14.709,23.661
			c4.689,7.673,9.166,14.781,13.428,21.315c9.094-19.61,18.119-38.721,27.072-57.339c8.952-18.611,16.839-35.171,23.66-49.666
			c7.953-17.052,15.627-33.252,23.021-48.6c8.806,5.116,15.841,9.166,21.103,12.15c5.256,2.984,10.019,5.755,14.281,8.313
			c4.264,2.558,6.248,3.837,5.969,3.837c-0.286,0-2.844,4.336-7.674,13.002c-4.836,8.673-11.157,20.11-18.971,34.318
			c-7.82,14.215-16.699,30.415-26.645,48.6c-9.951,18.191-20.11,36.81-30.481,55.847c-10.378,19.044-20.536,37.729-30.481,56.06
			c-9.952,18.332-18.831,34.598-26.645,48.813c-7.82,14.208-14.068,25.719-18.758,34.532
			C208.223,430.514,205.877,435.063,205.877,435.35z"/>
	</g>
</g>
</svg>
