<?xml version="1.0" encoding="utf-8"?>
<!-- Generator: Adobe Illustrator 16.0.0, SVG Export Plug-In . SVG Version: 6.00 Build 0)  -->
<!DOCTYPE svg PUBLIC "-//W3C//DTD SVG 1.1//EN" "http://www.w3.org/Graphics/SVG/1.1/DTD/svg11.dtd">
<svg version="1.1" id="Camada_1" xmlns="http://www.w3.org/2000/svg" xmlns:xlink="http://www.w3.org/1999/xlink" x="0px" y="0px"
	 width="500px" height="500px" viewBox="0 0 500 500" enable-background="new 0 0 500 500" xml:space="preserve">
<g>
	<g>
		<g>
			<path fill="none" stroke="#000000" stroke-width="12.7895" stroke-linecap="round" stroke-linejoin="round" d="M484.278,480.819
				c0,0-3.276,3.914-3.281,3.91c-0.205-0.172,2.658-41.351,2.658-41.351l-33.741,40.211c-1.603-1.345,34.442-79.336,34.442-79.336
				c-2.294-1.925-63.081,82.746-66.808,79.619c-0.96-0.806,69.428-115.038,66.763-117.273
				c-0.849-0.712-93.424,121.488-98.422,117.294c-5.332-4.474,100.039-156.049,99.854-156.205
				c-3.054-2.563-129.385,156.513-130.526,155.555c-8.738-7.332,133.339-188.611,129.212-192.074
				c0,0-153.464,201.416-162.586,193.762l162.718-232.303c-4.391-3.684-183.666,241.352-194.729,232.068
				c0,0,198.7-268.941,195.455-271.664c-4.922-4.13-216.985,283.971-229.482,273.486c-5.341-4.482,228.902-311.416,228.902-311.416
				S227.391,485.164,225.715,483.757l258.72-346.514c-7.772-6.522-282.157,354.617-291.195,347.033
				c-18.223-15.291,302.142-378.661,293.067-386.275c0,0-318.529,391.544-324.406,386.612c0,0,341.457-405.938,322.719-421.662
				c-5.475-4.594-342.362,432.479-354.41,422.37c0,0,368.478-447.734,353.821-460.033C468.201,12.006,110.795,497.95,97.078,486.44
				C96.129,485.644,464.259,17.896,461.296,15.41c0,0-375.74,486.593-394.847,470.561C44.406,467.474,429.634,14.399,429.585,14.358
				C416.977,3.778,41.729,492.447,33.92,485.894C13.269,468.565,402.093,20.083,396.723,15.577
				C383.184,4.217,31.587,485.686,14.375,471.242C-7.504,452.884,368.573,18.361,365.257,15.578
				c0,0-328.713,432.265-348.665,415.523C1.761,418.657,347.805,28.239,333.555,16.282c-6.258-5.251-309.74,383.975-317.048,377.843
				C0.131,380.384,310.834,19.857,303.605,13.792c-3.653-3.065-272.622,357.393-288.622,343.967c0,0,268.885-330.727,255.331-342.1
				c0,0-240.373,315.373-254.607,303.429c0,0,234.105-292.478,221.948-302.68c-4.824-4.048-223.369,266.386-223.46,266.31
				c-0.964-0.809,199.242-259.855,191.22-266.586C204.732,15.558,16.56,245.49,14.447,243.718
				C10.543,240.441,185.61,22.155,175.779,13.906c0,0-154.401,195.264-159.943,190.613C10.57,200.101,149.45,20.085,142.955,14.635
				c-7.47-6.268-128.296,152.897-128.296,152.897S112.136,14.231,112.041,14.15c-3.137-2.632-93.238,119.386-97.31,115.969
				C9.847,126.021,78.864,16.463,78.542,16.193c-1.061-0.89-64.362,77.192-64.603,76.99c-1.396-1.171,34.414-76.647,33.135-77.721
				c-0.605-0.508-31.215,37.688-31.455,37.487"/>
		</g>
	</g>
	<g>
		<rect x="15.001" y="22.256" fill="none" width="469.998" height="299.578"/>
		<path fill="#FFFFFF" d="M205.877,435.35c0,0.566-1.212,0.067-3.624-1.492c-2.418-1.565-5.189-3.344-8.313-5.329
			c-3.411-2.278-7.248-4.976-11.511-8.1l57.553-121.5L125.73,145.882c-0.286-0.28,1.632-2.058,5.755-5.329
			c4.117-3.264,8.666-6.821,13.642-10.658c4.969-3.837,11.863-8.879,20.676-15.134c11.364,18.191,22.595,36.097,33.679,53.715
			c4.543,7.674,9.379,15.634,14.495,23.874c5.116,8.247,10.231,16.413,15.347,24.513c5.116,8.1,10.019,15.987,14.708,23.661
			c4.689,7.673,9.166,14.781,13.429,21.315c9.093-19.61,18.119-38.721,27.071-57.339c8.953-18.611,16.839-35.171,23.66-49.666
			c7.954-17.052,15.627-33.252,23.021-48.6c8.806,5.116,15.84,9.166,21.103,12.15c5.256,2.984,10.019,5.755,14.282,8.313
			c4.263,2.558,6.248,3.837,5.968,3.837c-0.286,0-2.844,4.336-7.673,13.002c-4.836,8.673-11.158,20.11-18.971,34.318
			c-7.82,14.215-16.7,30.415-26.645,48.6c-9.952,18.191-20.11,36.81-30.481,55.847c-10.378,19.044-20.537,37.729-30.481,56.06
			c-9.952,18.332-18.831,34.598-26.645,48.813c-7.82,14.208-14.068,25.719-18.758,34.532
			C208.222,430.514,205.877,435.063,205.877,435.35z"/>
	</g>
</g>
</svg>
